<?xml version="1.0" encoding="utf-8"?>
<!-- Svg Vector Icons : http://www.onlinewebfonts.com/icon -->
<!DOCTYPE svg PUBLIC "-//W3C//DTD SVG 1.1//EN" "http://www.w3.org/Graphics/SVG/1.1/DTD/svg11.dtd">
<svg version="1.1" xmlns="http://www.w3.org/2000/svg" xmlns:xlink="http://www.w3.org/1999/xlink" x="0px" y="0px" viewBox="0 0 1000 1000" enable-background="new 0 0 1000 1000" xml:space="preserve">
<metadata> Svg Vector Icons : http://www.onlinewebfonts.com/icon </metadata>
<g><path d="M983,324.7c-1.1-2.1-2.2-4-2.6-5.5c-0.8-2.9-2.2-8.9-3.8-16c-1.7-7.5-3.7-16.1-5.6-23.9c-3.4-13.8-5.5-18.3-11-30.5l-4.5-9.9c-9.4-21.1-26.8-46-39.1-59.8c-7.5-8.3-13.1-16.1-17.6-22.3c-1.9-2.6-3.5-4.9-5.1-6.9c-3.2-4.2-7.6-14.8-10.1-21.2c-1-2.4-1.8-4.5-2.5-5.9c-3.9-9.2-13.4-16.5-24.5-24.5c-8.2-5.9-17.6-9-25.2-11.1c-1.8-1.4-5.5-5.2-8-7.8c-5.8-6.1-11.3-11.8-17-14.5c-12.5-5.9-52.9,0-60.6,3.3c-12.8,5.4-30.8,36.7-31.7,48.3c-0.6,8.4,1.4,15.2,2.7,19.3c-0.3,0.5-0.5,1-0.8,1.5c-2.3,4.5-5.2,10.2-4.8,16.7c0.6,10.7,7.7,17.4,13.7,23c9.8,9.1,31.3,10.1,40.1,10.1c7.6,0,19.4-1.1,29.9-2.2c4-0.4,8.9-0.9,12.4-1.1c5.6,7.8,16.3,29,17.5,34.6c0.7,5.1-2.9,27.3-4.3,35.7l-1.2,7.5c-1.2,7.9,0.7,21.4,3.5,36.5c-9.1-2.4-24.7-4.6-44,0.3c-21.3,5.4-36,17.5-43.9,24c0,0-0.1,0-0.1,0.1c-3-1.5-7.2-3.7-13-5.5c-14-4.2-28.4-4.6-51.3-1.3c-18.7,2.7-32.3,12-42.2,18.8c-2.4,1.6-4.6,3.2-6.6,4.3c-2.4,1.4-4.4,2.7-6.4,3.9c-6.3,3.9-10.8,6.8-19.9,10.2c-4.5-1.3-13.2-15.1-15.2-21.8c0.6-2.2,2.5-6.7,3.8-9.8c2.4-5.8,5-11.8,6.2-17.4c1.5-6.8,1.6-12.1,1.7-16.1c0.1-2,0.1-3.9,0.3-4.8c0.6-1.7,3.6-6.7,5.4-9.6c2.3-3.8,4.4-7.4,5.9-10.5c2.9-6.2,7.8-16.7,8.3-34.9c0.4-15.9-6.3-24.2-11.9-28.7c0.4-8.6-0.5-24.5-13.8-50.8c-24.8-49.5-86.9-51.9-86.9-51.9c-3.8,0-58.6-0.1-85.1,51.2c-13.2,25.6-14.4,41.5-13.9,51.1c-5.4,4.3-12.3,12.5-11.9,28.6c0.5,18.1,5.3,28.5,8.6,35.5c1.2,2.5,3.3,6,5.5,9.7c1.8,3,4.9,8,5.4,9.7c0.2,0.9,0.3,2.9,0.3,4.9c0.1,3.9,0.3,9.3,1.7,16.1c1.2,5.7,3.8,11.7,6.2,17.5c1.3,3.1,3.2,7.5,3.8,9.8c-2,6.7-10.6,20.5-14,21.9c-10.3-3.5-14.8-6.4-21.1-10.3c-2-1.3-4.1-2.6-6.4-3.9c-2-1.2-4.2-2.7-6.5-4.3c-9.9-6.8-23.5-16.1-42.2-18.8c-23-3.3-37.4-3-51.4,1.3c-5.8,1.8-10.1,3.9-13,5.5c-7.4-6.1-22.7-18.6-43.9-24c-19.3-4.9-35-2.7-44-0.3c2.8-15.1,4.8-28.6,3.5-36.5l-1.1-6.8c-1.4-8.5-5.1-31.1-4.4-36.3c1.3-5.7,11.9-26.9,17.6-34.6c3.6,0.3,8.8,0.8,12.9,1.2c10.3,1,21.9,2.1,29.4,2.1c8.8,0,30.4-1,41-10.9c5.2-4.9,12.3-11.6,12.8-22.2c0.3-6.5-2.5-12.1-4.8-16.7c-0.3-0.5-0.6-1.1-0.8-1.6c1.3-4.2,3.3-10.9,2.7-19.2c-0.8-11.7-18.9-43-31.8-48.5c-7.8-3.2-48.2-9-60.6-3.2c-5.7,2.7-11.1,8.5-17,14.6c-2.5,2.6-6.1,6.4-7.9,7.8c-10.3,2.7-18.6,6.3-25.2,11c-11.1,7.9-20.6,15.2-24.5,24.4c-0.7,1.5-1.5,3.6-2.4,5.9c-2.6,6.4-6.9,17-10.2,21.3c-1.6,2-3.2,4.3-5,6.8c-4.5,6.2-10.2,14-17.6,22.4c-12.3,13.8-29.7,38.8-39.1,59.8l-4.4,9.7c-5.6,12.2-7.7,16.8-11.1,30.6c-2,8-4,16.7-5.7,24.2c-1.6,7-2.9,12.9-3.7,15.8c-0.5,1.5-1.6,3.4-2.6,5.5c-3.5,6.7-7.9,15.2-6.8,24.3c1.3,10.9,3.7,19.9,23.8,36c6.5,5.2,15.6,13.3,25.4,21.8c17.9,15.6,36.4,31.8,47.3,38.9l2.2,1.5c17.3,11.2,53.3,34.6,88.4,40c18.7,2.9,35.2,2.2,47.2,1.6c2.8-0.1,5.9-0.2,8.5-0.3c0.9,9.9,2.5,26.2,15.9,47.6c10.3,16.3,23.5,31.2,33.1,42.1c5,5.6,11.2,12.6,11.9,13.8c2.3,9,10.4,30.3,15.6,41.4c1.8,3.9,4,7.8,6.1,11.6c3.2,5.8,6.9,12.5,7.5,16.3c1.2,8,4.4,28.2,6,38.4l0.6,3.9l25.6-4.1l-0.6-4c-1.6-10.1-4.8-30.2-6-38.3c-1.3-8.4-6-16.8-10.5-24.9c-1.9-3.4-3.8-6.8-5.4-10.1c-4.9-10.4-12.1-29.9-13.9-36.8c-1.6-6.2-6.6-12-17.6-24.5c-9.5-10.8-21.4-24.2-30.5-38.7c-10.3-16.4-11.3-28-12.1-36.5c-0.5-5.5-1-10.7-4.1-15.3c-6-8.7-16-8.2-31.3-7.6c-10.9,0.5-25.9,1.1-42.2-1.4c-29.6-4.6-62.4-25.9-78.2-36.1l-2.2-1.5c-9.4-6.1-27.9-22.4-44.3-36.7c-10.1-8.8-19.5-17.1-26.2-22.5c-13.4-10.7-13.7-13.9-14.3-18.7c0.2-1.8,2.7-6.7,4.1-9.4c1.9-3.6,3.6-6.9,4.6-10.4c0.9-3.1,2.4-9.5,4.1-17.1c1.7-7.3,3.6-15.9,5.6-23.8c2.9-11.5,4.3-14.6,9.5-26.2l4.4-9.8c8.2-18.4,24-41.1,34.8-53.1c8.3-9.3,14.4-17.7,19.3-24.4c1.7-2.3,3.2-4.4,4.7-6.4c5.3-7,10.1-18.7,13.6-27.3c0.8-2.1,1.6-3.9,2.2-5.3c1.6-3.4,11.9-10.8,16-13.7c6.1-4.4,14.7-6.5,17.7-7.2c6.2-1.6,11.3-6.6,19-14.7c2.9-3,7.7-8.1,8.5-8.7c6.2-1.6,32.8,1.2,39.8,3.2c4.7,4.2,15.4,21.5,16.4,26.6c0.3,3.6-0.7,6.8-1.7,9.9c-0.5,1.6-0.9,3-1.2,4.1c-1.5,6.4,1.3,11.8,3.7,16.6c0.5,1,1.3,2.6,1.8,3.7c-0.9,1.2-3,3.2-4.8,4.9c-1.9,1.2-10.5,3.5-22.8,3.5c-6.2,0-17.7-1.1-26.9-2c-11.2-1.1-17.2-1.7-20.6-1.4c-19.5,0.9-37.8,55.6-37.9,56.1c-1.4,7.6,0.4,21.2,4.4,45.1l1.1,6.6c0.9,5.9-3.8,29.8-5.3,37.6c-1.4,7.1-1.8,9.5-1.9,11.5l0.2,8.2l5.9,4c7.6,5.2,16.8,1.4,24.2-1.8l1.5-0.6c1.5-0.6,15.5-5.9,35.2-0.9c15.7,3.9,27,13.3,33.8,18.9c2.3,1.9,4.1,3.3,5.4,4.2c9.3,5.9,17.5,1.6,22.4-1c2.6-1.4,5.3-2.8,9.2-4c10.1-3.1,21-3.2,40.2-0.4c12.7,1.8,22.6,8.6,31.2,14.5c2.9,2,5.6,3.8,8,5.3c2.1,1.3,4,2.4,5.9,3.6c6.8,4.3,13.3,8.3,26.5,12.8c5.2,1.7,13.3,2.6,22.6-3.6c14.2-9.4,25.2-32.4,25.9-41.2c0.4-6.4-2.5-13.4-5.9-21.5c-1.9-4.5-4.1-9.6-4.8-12.9c-1-4.4-1.1-7.9-1.1-11.3c-0.1-3.3-0.2-6.8-1.1-10.4c-1.2-4.7-4.1-9.7-8.4-16.9c-1.6-2.7-3.2-5.3-4.5-7.9c-2.3-5-5.5-11.9-5.8-24.5c-0.2-6.4,1.4-7.3,4-8.9c0.9-0.5,1.7-1,2.4-1.5c7-5,6.1-12.8,5.7-16.2c-0.5-4.8-1.8-16.2,10.8-40.5c19.3-37.3,59.9-37,61.7-37.2l0-0.1c4.7,0.3,47,3.7,64,37.7c12.4,24.5,11.3,35.9,10.8,40.8c-0.3,3.3-1.1,11.1,5.8,16c0.6,0.5,1.4,0.9,2.3,1.5c2.6,1.6,4.2,2.5,4,9c-0.3,12.8-3.5,19.6-6.2,25.3c-0.9,1.9-2.5,4.5-4.2,7.3c-4.3,7.1-7.2,12-8.3,16.6c-0.9,3.7-1,7.1-1.1,10.5c-0.1,3.4-0.2,6.8-1.2,11.2c-0.7,3.3-2.9,8.4-4.8,12.9c-3.4,8.1-6.4,15.2-5.9,21.6c0.6,8.9,11.7,31.8,25.9,41.2c9.3,6.2,17.4,5.3,22.5,3.6c13.2-4.5,19.7-8.6,26.5-12.9c1.8-1.1,3.7-2.3,5.8-3.6c2.5-1.4,5.1-3.3,8.1-5.3c8.7-5.9,18.5-12.7,31.2-14.5c18.9-2.8,30.1-2.6,40.1,0.4c3.9,1.2,6.6,2.6,9.2,3.9c4.9,2.6,13.2,6.9,22.4,0.9c1.3-0.8,3.2-2.3,5.5-4.2c6.8-5.6,18.1-14.9,33.7-18.8c19.2-4.8,32.7,0,35.2,1l1.4,0.6c7.4,3.1,16.6,7,24.3,1.8l6.4-5.1l-0.3-7.2c-0.1-2-0.5-4.3-1.9-11.6c-1.7-8.6-6.2-31.6-5.3-37.5l1.2-7.2c3.9-23.7,5.6-37.1,4.3-44.4c-0.1-0.5-18.4-55.3-37.9-56.3c-3.5-0.2-9.2,0.4-20.1,1.4c-9.4,0.9-21.1,2-27.4,2c-12.3,0-20.9-2.3-23.1-3.8c-1.5-1.4-3.6-3.4-4.5-4.6c0.5-1.1,1.3-2.7,1.8-3.8c2.4-4.8,5.2-10.3,3.7-16.5c-0.3-1.2-0.7-2.6-1.2-4.2c-1-3.1-2-6.4-1.8-9.6c1.1-5.5,11.8-22.8,16.5-26.9c7.5-2.2,33.8-4.7,38.7-3.6c1.8,1.1,6.7,6.1,9.5,9.1c7.8,8.1,12.8,13.2,19,14.7c3.5,0.9,11.8,3,17.9,7.5c4.2,3,14.1,10.1,15.7,13.6c0.6,1.4,1.4,3.3,2.3,5.4c3.5,8.5,8.2,20.1,13.5,27.1c1.5,1.9,3,4,4.7,6.4c4.8,6.7,10.9,15,19.2,24.3c10.7,11.9,26.5,34.6,34.8,53l4.5,10.1c5.2,11.4,6.6,14.5,9.4,26c1.9,7.7,3.9,16.1,5.5,23.4c1.8,7.7,3.3,14.2,4.2,17.4c1,3.4,2.7,6.8,4.6,10.3c1.4,2.7,3.9,7.6,4.1,9.2c-0.6,4.9-1,8.1-14.3,18.8c-6.7,5.4-16.1,13.6-26.2,22.5c-16.4,14.4-35,30.6-44.3,36.7l-2.3,1.5c-15.8,10.2-48.6,31.5-78.2,36.1c-16.2,2.5-31.2,1.8-42.2,1.4c-15.2-0.7-25.3-1.1-31.3,7.6c-3.2,4.6-3.7,9.9-4.1,15.4c-0.7,8.5-1.8,20.1-12.1,36.5c-9.1,14.5-21,27.9-30.5,38.6c-11.1,12.5-16,18.3-17.7,24.7c-1.7,6.8-9,26.2-13.9,36.7c-1.6,3.4-3.5,6.8-5.4,10.2c-4.5,8.1-9.2,16.5-10.5,25c-1,6.4-3.2,20.5-4.9,31l-1.8,11.1l25.7,4l1.8-11.1c1.7-10.6,3.9-24.8,4.9-31.2c0.6-3.9,4.3-10.5,7.5-16.3c2.1-3.9,4.3-7.8,6.2-11.7c5.4-11.4,13.3-32.3,15.2-40.3c1.2-2.3,7.4-9.3,12.4-15c9.6-10.9,22.8-25.8,33-42c13.4-21.4,15.1-37.7,15.9-47.6c2.6,0,5.7,0.2,8.5,0.3c12,0.5,28.5,1.2,47.2-1.7c35.1-5.4,71.1-28.8,88.4-40l2.3-1.5c10.9-7.1,29.4-23.3,47.3-38.9c9.8-8.5,18.9-16.6,25.4-21.8c20-16.1,22.5-25.1,23.9-36.4C990.9,339.8,986.5,331.4,983,324.7z"/><path d="M567.2,938.1l-52.4-192.1l-52.2,162.5l-53.8-154.6l-18.5,51.2h-32.6v-30.4H369L409.4,663l52.1,149.7l55.7-173.6l49.1,180l11.4-44.5h75v30.4h-51.4L567.2,938.1z"/></g>
</svg>